<mxfile host="app.diagrams.net" agent="Mozilla/5.0 (Windows NT 10.0; Win64; x64) AppleWebKit/537.36 (KHTML, like Gecko) Chrome/128.0.0.0 YaBrowser/24.10.0.0 Safari/537.36" version="24.8.3">
  <diagram name="Страница — 1" id="gMMIyeNlk0S4dLljd02K">
    <mxGraphModel dx="1434" dy="791" grid="1" gridSize="10" guides="1" tooltips="1" connect="1" arrows="1" fold="1" page="1" pageScale="1" pageWidth="827" pageHeight="1169" math="0" shadow="0">
      <root>
        <mxCell id="0" />
        <mxCell id="1" parent="0" />
        <mxCell id="vJUxqgWUVlArYljX-7wB-5" value="" style="edgeStyle=orthogonalEdgeStyle;rounded=0;orthogonalLoop=1;jettySize=auto;html=1;" edge="1" parent="1" source="vJUxqgWUVlArYljX-7wB-1" target="vJUxqgWUVlArYljX-7wB-4">
          <mxGeometry relative="1" as="geometry" />
        </mxCell>
        <mxCell id="vJUxqgWUVlArYljX-7wB-1" value="start" style="ellipse;whiteSpace=wrap;html=1;" vertex="1" parent="1">
          <mxGeometry x="354" y="30" width="120" height="80" as="geometry" />
        </mxCell>
        <mxCell id="vJUxqgWUVlArYljX-7wB-11" value="" style="edgeStyle=orthogonalEdgeStyle;rounded=0;orthogonalLoop=1;jettySize=auto;html=1;" edge="1" parent="1" source="vJUxqgWUVlArYljX-7wB-4" target="vJUxqgWUVlArYljX-7wB-10">
          <mxGeometry relative="1" as="geometry" />
        </mxCell>
        <mxCell id="vJUxqgWUVlArYljX-7wB-4" value="size&lt;br&gt;input array[size]" style="shape=parallelogram;perimeter=parallelogramPerimeter;whiteSpace=wrap;html=1;fixedSize=1;" vertex="1" parent="1">
          <mxGeometry x="354" y="200" width="120" height="60" as="geometry" />
        </mxCell>
        <mxCell id="vJUxqgWUVlArYljX-7wB-13" value="" style="edgeStyle=orthogonalEdgeStyle;rounded=0;orthogonalLoop=1;jettySize=auto;html=1;" edge="1" parent="1" source="vJUxqgWUVlArYljX-7wB-10" target="vJUxqgWUVlArYljX-7wB-12">
          <mxGeometry relative="1" as="geometry" />
        </mxCell>
        <mxCell id="vJUxqgWUVlArYljX-7wB-10" value="i = 0&lt;div&gt;res_array&lt;/div&gt;" style="whiteSpace=wrap;html=1;" vertex="1" parent="1">
          <mxGeometry x="354" y="340" width="120" height="60" as="geometry" />
        </mxCell>
        <mxCell id="vJUxqgWUVlArYljX-7wB-15" value="" style="edgeStyle=orthogonalEdgeStyle;rounded=0;orthogonalLoop=1;jettySize=auto;html=1;" edge="1" parent="1" source="vJUxqgWUVlArYljX-7wB-12" target="vJUxqgWUVlArYljX-7wB-14">
          <mxGeometry relative="1" as="geometry" />
        </mxCell>
        <mxCell id="vJUxqgWUVlArYljX-7wB-35" value="no" style="edgeLabel;html=1;align=center;verticalAlign=middle;resizable=0;points=[];" vertex="1" connectable="0" parent="vJUxqgWUVlArYljX-7wB-15">
          <mxGeometry x="-0.0874" y="-4" relative="1" as="geometry">
            <mxPoint x="-4" y="-4" as="offset" />
          </mxGeometry>
        </mxCell>
        <mxCell id="vJUxqgWUVlArYljX-7wB-19" value="" style="edgeStyle=orthogonalEdgeStyle;rounded=0;orthogonalLoop=1;jettySize=auto;html=1;" edge="1" parent="1" source="vJUxqgWUVlArYljX-7wB-12" target="vJUxqgWUVlArYljX-7wB-18">
          <mxGeometry relative="1" as="geometry" />
        </mxCell>
        <mxCell id="vJUxqgWUVlArYljX-7wB-29" value="yes" style="edgeLabel;html=1;align=center;verticalAlign=middle;resizable=0;points=[];" vertex="1" connectable="0" parent="vJUxqgWUVlArYljX-7wB-19">
          <mxGeometry x="-0.175" y="-1" relative="1" as="geometry">
            <mxPoint as="offset" />
          </mxGeometry>
        </mxCell>
        <mxCell id="vJUxqgWUVlArYljX-7wB-12" value="i &amp;lt;= size - 1" style="rhombus;whiteSpace=wrap;html=1;" vertex="1" parent="1">
          <mxGeometry x="331" y="470" width="166" height="80" as="geometry" />
        </mxCell>
        <mxCell id="vJUxqgWUVlArYljX-7wB-38" value="" style="edgeStyle=orthogonalEdgeStyle;rounded=0;orthogonalLoop=1;jettySize=auto;html=1;" edge="1" parent="1" source="vJUxqgWUVlArYljX-7wB-14" target="vJUxqgWUVlArYljX-7wB-37">
          <mxGeometry relative="1" as="geometry" />
        </mxCell>
        <mxCell id="vJUxqgWUVlArYljX-7wB-14" value="print res_array" style="whiteSpace=wrap;html=1;" vertex="1" parent="1">
          <mxGeometry x="600" y="480" width="120" height="60" as="geometry" />
        </mxCell>
        <mxCell id="vJUxqgWUVlArYljX-7wB-23" value="" style="edgeStyle=orthogonalEdgeStyle;rounded=0;orthogonalLoop=1;jettySize=auto;html=1;" edge="1" parent="1" source="vJUxqgWUVlArYljX-7wB-18" target="vJUxqgWUVlArYljX-7wB-22">
          <mxGeometry relative="1" as="geometry" />
        </mxCell>
        <mxCell id="vJUxqgWUVlArYljX-7wB-33" value="no" style="edgeLabel;html=1;align=center;verticalAlign=middle;resizable=0;points=[];" vertex="1" connectable="0" parent="vJUxqgWUVlArYljX-7wB-23">
          <mxGeometry x="-0.037" y="-2" relative="1" as="geometry">
            <mxPoint as="offset" />
          </mxGeometry>
        </mxCell>
        <mxCell id="vJUxqgWUVlArYljX-7wB-25" value="" style="edgeStyle=orthogonalEdgeStyle;rounded=0;orthogonalLoop=1;jettySize=auto;html=1;" edge="1" parent="1" source="vJUxqgWUVlArYljX-7wB-18" target="vJUxqgWUVlArYljX-7wB-24">
          <mxGeometry relative="1" as="geometry" />
        </mxCell>
        <mxCell id="vJUxqgWUVlArYljX-7wB-30" value="yes" style="edgeLabel;html=1;align=center;verticalAlign=middle;resizable=0;points=[];" vertex="1" connectable="0" parent="vJUxqgWUVlArYljX-7wB-25">
          <mxGeometry y="1" relative="1" as="geometry">
            <mxPoint as="offset" />
          </mxGeometry>
        </mxCell>
        <mxCell id="vJUxqgWUVlArYljX-7wB-18" value="len array[i] &amp;lt;=3" style="rhombus;whiteSpace=wrap;html=1;" vertex="1" parent="1">
          <mxGeometry x="331" y="630" width="166" height="80" as="geometry" />
        </mxCell>
        <mxCell id="vJUxqgWUVlArYljX-7wB-27" style="edgeStyle=orthogonalEdgeStyle;rounded=0;orthogonalLoop=1;jettySize=auto;html=1;exitX=0.5;exitY=0;exitDx=0;exitDy=0;entryX=0;entryY=0.5;entryDx=0;entryDy=0;" edge="1" parent="1" source="vJUxqgWUVlArYljX-7wB-22" target="vJUxqgWUVlArYljX-7wB-12">
          <mxGeometry relative="1" as="geometry" />
        </mxCell>
        <mxCell id="vJUxqgWUVlArYljX-7wB-22" value="i = i + 1" style="whiteSpace=wrap;html=1;" vertex="1" parent="1">
          <mxGeometry x="130" y="640" width="120" height="60" as="geometry" />
        </mxCell>
        <mxCell id="vJUxqgWUVlArYljX-7wB-26" style="edgeStyle=orthogonalEdgeStyle;rounded=0;orthogonalLoop=1;jettySize=auto;html=1;exitX=0;exitY=0.5;exitDx=0;exitDy=0;entryX=0.5;entryY=1;entryDx=0;entryDy=0;" edge="1" parent="1" source="vJUxqgWUVlArYljX-7wB-24" target="vJUxqgWUVlArYljX-7wB-22">
          <mxGeometry relative="1" as="geometry" />
        </mxCell>
        <mxCell id="vJUxqgWUVlArYljX-7wB-24" value="res_array.append array[i]&amp;nbsp;" style="whiteSpace=wrap;html=1;" vertex="1" parent="1">
          <mxGeometry x="326" y="800" width="176" height="60" as="geometry" />
        </mxCell>
        <mxCell id="vJUxqgWUVlArYljX-7wB-37" value="finish" style="ellipse;whiteSpace=wrap;html=1;" vertex="1" parent="1">
          <mxGeometry x="605" y="610" width="110" height="80" as="geometry" />
        </mxCell>
      </root>
    </mxGraphModel>
  </diagram>
</mxfile>
